<svg xmlns="http://www.w3.org/2000/svg" viewBox="0 0 512 512"><defs><linearGradient id="bg" x1="0" y1="0" x2="1" y2="1"><stop stop-color="#123f82"/><stop offset="1" stop-color="#031b49"/></linearGradient><linearGradient id="sea" x1="0" y1="0" x2="1" y2="0"><stop stop-color="#20d9ef"/><stop offset="1" stop-color="#0877e8"/></linearGradient><radialGradient id="globe"><stop stop-color="#26cfff"/><stop offset="1" stop-color="#0751a7"/></radialGradient></defs><rect width="512" height="512" rx="112" fill="url(#bg)"/><g transform="translate(54 22) scale(.78)"><circle cx="260" cy="166" r="112" fill="url(#globe)" stroke="#8feaff" stroke-width="5"/><path d="M163 137c47-42 108-54 165-29M153 181c54-23 116-19 174 11M169 218c43 4 92 21 132 48M214 68c-18 42-19 88 0 132s20 88 4 126M285 59c-23 42-25 89-8 135s19 89 6 128" fill="none" stroke="#7ce5ff" stroke-width="3" opacity=".55"/><path d="M113 266h166v88H113z" fill="#f8fbff"/><path d="M113 266l83-60 83 60" fill="#f8fbff"/><path d="M143 278h38v76h-38zm60-28h38v106h-38z" fill="#0c55a8"/><path d="M271 285h31v69h-31z" fill="#0c55a8"/><path d="M246 286h57l-5-22h-47zM269 251h9v13h-9z" fill="#f8fbff"/><path d="M217 347h153l69-52c9-7 22 1 18 12l-34 89H267z" fill="#f8fbff"/><path d="M276 358h151l-7 25H268z" fill="#0d62c4"/><path d="M67 374c57-44 112-49 170-9 58 40 109 40 169 1 40-26 70-34 107-17-45 4-74 20-106 42-60 42-120 42-181 0-51-35-94-39-159-17z" fill="url(#sea)"/><path d="M71 397c56-23 99-18 153 17 59 38 117 39 181 0 32-20 61-28 91-27-35 13-59 28-87 44-65 38-128 37-191-1-50-31-92-40-147-33z" fill="#0a70db"/></g><text x="78" y="444" font-family="Arial, Helvetica, sans-serif" font-size="43" font-weight="800" fill="#f8fbff">Customs</text><text x="304" y="444" font-family="Arial, Helvetica, sans-serif" font-size="43" font-weight="800" fill="#20c9f2">OS</text><text x="82" y="466" font-family="Arial, Helvetica, sans-serif" font-size="8" letter-spacing="2.2" fill="#d9ecff">CUSTOMS &amp; LOGISTICS MANAGEMENT</text></svg>