<svg xmlns="http://www.w3.org/2000/svg" viewBox="0 0 900 260"><defs><linearGradient id="sea" x1="0" y1="0" x2="1" y2="0"><stop stop-color="#20d9ef"/><stop offset="1" stop-color="#0877e8"/></linearGradient><radialGradient id="globe"><stop stop-color="#26cfff"/><stop offset="1" stop-color="#0751a7"/></radialGradient></defs><g transform="translate(0 0)"><circle cx="155" cy="92" r="78" fill="url(#globe)" stroke="#8feaff" stroke-width="4"/><path d="M87 72c33-29 75-37 115-20M80 103c38-16 80-13 120 8M91 128c30 3 63 14 91 33M129 24c-13 29-13 61 0 91s14 61 3 87M178 18c-16 29-17 62-5 94s13 62 4 88" fill="none" stroke="#7ce5ff" stroke-width="2.5" opacity=".55"/><path d="M42 161h116v62H42z" fill="#f8fbff"/><path d="M42 161l58-42 58 42" fill="#f8fbff"/><path d="M63 170h27v53H63zm42-19h27v72h-27z" fill="#0c55a8"/><path d="M153 174h22v49h-22z" fill="#0c55a8"/><path d="M135 175h40l-4-15h-32zM151 151h7v9h-7z" fill="#f8fbff"/><path d="M116 218h106l48-36c7-5 15 1 12 8l-24 63H151z" fill="#f8fbff"/><path d="M157 226h104l-5 18H151z" fill="#0d62c4"/><path d="M10 237c40-31 78-34 119-6 40 28 75 28 117 1 28-18 49-24 74-12-31 3-51 14-73 29-42 29-83 29-126 0-35-24-65-27-111-12z" fill="url(#sea)"/><path d="M13 254c39-16 69-12 106 12 41 26 81 27 125 0 22-14 42-19 63-18-24 9-41 19-60 30-45 26-89 26-133-1-35-22-64-28-101-23z" fill="#0a70db"/></g><text x="310" y="132" font-family="Arial, Helvetica, sans-serif" font-size="82" font-weight="800" fill="#082c61">Customs</text><text x="665" y="132" font-family="Arial, Helvetica, sans-serif" font-size="82" font-weight="800" fill="#10aef0">OS</text><text x="314" y="177" font-family="Arial, Helvetica, sans-serif" font-size="22" letter-spacing="4" fill="#12365f">CUSTOMS &amp; LOGISTICS MANAGEMENT</text></svg>